SplineFontDB: 3.0
FontName: andemx
FullName: andemx
FamilyName: andemx
Weight: Regular
Copyright: Copyright (c) 2018, Anthony
UComments: "2018-6-6: Created with FontForge (http://fontforge.org)"
Version: 001.000
ItalicAngle: 0
UnderlinePosition: -63.488
UnderlineWidth: 0
Ascent: 831
Descent: 193
InvalidEm: 0
LayerCount: 2
Layer: 0 0 "Arri+AOgA-re" 1
Layer: 1 0 "Avant" 0
XUID: [1021 101 -694660715 26831]
FSType: 0
OS2Version: 0
OS2_WeightWidthSlopeOnly: 0
OS2_UseTypoMetrics: 1
CreationTime: 1528289563
ModificationTime: 1528306428
PfmFamily: 17
TTFWeight: 400
TTFWidth: 5
LineGap: 63
VLineGap: 0
OS2TypoAscent: 0
OS2TypoAOffset: 1
OS2TypoDescent: 0
OS2TypoDOffset: 1
OS2TypoLinegap: 63
OS2WinAscent: 0
OS2WinAOffset: 1
OS2WinDescent: 0
OS2WinDOffset: 1
HheadAscent: 0
HheadAOffset: 1
HheadDescent: 0
HheadDOffset: 1
OS2Vendor: 'PfEd'
MarkAttachClasses: 1
DEI: 91125
LangName: 1033
Encoding: ISO8859-1
UnicodeInterp: none
NameList: AGL For New Fonts
DisplaySize: -48
AntiAlias: 1
FitToEm: 0
WinInfo: 0 19 14
BeginPrivate: 1
BlueValues 22 [2 15 611 625 800 800]
EndPrivate
TeXData: 1 0 0 346030 173015 115343 626560 1048576 115343 783286 444596 497025 792723 393216 433062 380633 303038 157286 324010 404750 52429 2506097 1059062 262144
BeginChars: 256 110

StartChar: a
Encoding: 97 97 0
Width: 1024
VWidth: 0
Flags: HMW
HStem: 2 117<240 412> 496 117<240 409>
VStem: 19 117<222 392> 512 117<15 68 221 390>
LayerCount: 2
Fore
SplineSet
512 68 m 2
 460 27 395 2 324 2 c 0
 156 2 19 139 19 307 c 0
 19 475 156 612 324 612 c 0
 492 612 629 475 629 307 c 10
 629 60 l 18
 629 28 602 2 570 2 c 0
 538 2 512 28 512 60 c 10
 512 68 l 2
324 119 m 0
 428 119 512 203 512 307 c 0
 512 411 428 496 324 496 c 0
 220 496 135 411 135 307 c 0
 135 203 220 119 324 119 c 0
EndSplineSet
Validated: 1
EndChar

StartChar: b
Encoding: 98 98 1
Width: 1024
VWidth: 0
Flags: HW
LayerCount: 2
Fore
SplineSet
77 800 m 0
 109 800 135 774 135 742 c 2
 135 547 l 1
 187 588 253 612 324 612 c 0
 492 612 629 475 629 307 c 0
 629 139 492 2 324 2 c 0
 156 2 19 139 19 307 c 2
 19 742 l 2
 19 774 45 800 77 800 c 0
324 496 m 0
 220 496 135 411 135 307 c 0
 135 203 220 119 324 119 c 0
 428 119 512 203 512 307 c 0
 512 411 428 496 324 496 c 0
EndSplineSet
Validated: 1
EndChar

StartChar: c
Encoding: 99 99 2
Width: 1024
VWidth: 0
Flags: HW
LayerCount: 2
Fore
SplineSet
109 104 m 0
 50 163 19 241 19 319 c 0
 19 397 50 477 109 536 c 0
 168 595 246 625 324 625 c 0
 402 625 480 595 539 536 c 0
 550 525 555 509 555 495 c 0
 555 481 550 465 539 454 c 0
 528 443 512 436 498 436 c 0
 484 436 468 443 457 454 c 0
 420 491 372 509 324 509 c 0
 276 509 227 491 190 454 c 0
 153 417 135 367 135 319 c 0
 135 271 153 223 190 186 c 0
 227 149 276 131 324 131 c 0
 372 131 420 149 457 186 c 0
 468 197 484 203 498 203 c 0
 512 203 528 197 539 186 c 0
 550 175 555 159 555 145 c 0
 555 131 550 115 539 104 c 0
 480 45 402 15 324 15 c 0
 246 15 168 45 109 104 c 0
EndSplineSet
Validated: 1
EndChar

StartChar: d
Encoding: 100 100 3
Width: 1024
VWidth: 0
Flags: HW
LayerCount: 2
Fore
SplineSet
512 547 m 1
 512 742 l 2
 512 774 538 800 570 800 c 0
 602 800 629 774 629 742 c 2
 629 307 l 2
 629 139 492 3 324 3 c 0
 156 3 19 139 19 307 c 0
 19 475 156 612 324 612 c 0
 395 612 460 588 512 547 c 1
324 496 m 0
 220 496 135 411 135 307 c 0
 135 203 220 119 324 119 c 0
 428 119 512 203 512 307 c 0
 512 411 428 496 324 496 c 0
EndSplineSet
Validated: 1
EndChar

StartChar: e
Encoding: 101 101 4
Width: 1024
VWidth: 0
Flags: HW
LayerCount: 2
Fore
SplineSet
324 612 m 0
 492 612 629 475 629 307 c 0
 629 275 602 249 570 249 c 2
 144 249 l 1
 169 173 240 119 324 119 c 0
 356 119 382 92 382 60 c 0
 382 28 356 2 324 2 c 0
 156 2 19 139 19 307 c 0
 19 475 156 612 324 612 c 0
324 496 m 0
 240 496 169 442 144 366 c 1
 503 366 l 1
 478 442 408 496 324 496 c 0
EndSplineSet
Validated: 1
EndChar

StartChar: f
Encoding: 102 102 5
Width: 1024
VWidth: 0
Flags: HW
LayerCount: 2
Fore
SplineSet
19 60 m 2
 19 496 l 2
 19 664 156 800 324 800 c 0
 356 800 382 774 382 742 c 0
 382 710 356 684 324 684 c 0
 240 684 169 630 144 554 c 1
 194 591 257 612 324 612 c 0
 356 612 382 586 382 554 c 0
 382 522 356 496 324 496 c 0
 220 496 135 411 135 307 c 2
 135 60 l 2
 135 28 109 2 77 2 c 0
 45 2 19 28 19 60 c 2
EndSplineSet
Validated: 1
EndChar

StartChar: g
Encoding: 103 103 6
Width: 1024
VWidth: 0
Flags: HW
LayerCount: 2
Fore
SplineSet
457 -17 m 0
 479 5 494 29 503 57 c 1
 453 20 391 -1 324 -1 c 0
 156 -1 19 136 19 304 c 0
 19 472 156 608 324 608 c 0
 395 608 460 585 512 544 c 1
 512 550 l 2
 512 582 538 608 570 608 c 0
 602 608 629 582 629 550 c 2
 629 304 l 1
 629 116 l 2
 629 38 598 -41 539 -100 c 0
 480 -159 402 -189 324 -189 c 0
 246 -189 168 -159 109 -100 c 0
 98 -89 92 -74 92 -59 c 0
 92 -44 98 -28 109 -17 c 0
 120 -6 136 0 150 0 c 0
 164 0 179 -6 190 -17 c 0
 227 -54 276 -73 324 -73 c 0
 372 -73 420 -54 457 -17 c 0
324 116 m 0
 428 116 512 200 512 304 c 0
 512 408 428 492 324 492 c 0
 220 492 135 408 135 304 c 0
 135 200 220 116 324 116 c 0
EndSplineSet
Validated: 1
EndChar

StartChar: h
Encoding: 104 104 7
Width: 1024
VWidth: 0
Flags: HW
LayerCount: 2
Fore
SplineSet
19 742 m 2
 19 774 45 800 77 800 c 0
 109 800 135 774 135 742 c 2
 135 547 l 1
 187 588 253 612 324 612 c 0
 492 612 629 475 629 307 c 2
 629 60 l 2
 629 28 602 2 570 2 c 0
 538 2 512 28 512 60 c 2
 512 307 l 2
 512 411 428 496 324 496 c 0
 220 496 135 411 135 307 c 2
 135 60 l 2
 135 28 109 2 77 2 c 0
 45 2 19 28 19 60 c 2
 19 401 l 1
 19 742 l 2
EndSplineSet
Validated: 1
EndChar

StartChar: i
Encoding: 105 105 8
Width: 1024
VWidth: 0
Flags: HW
LayerCount: 2
Fore
SplineSet
629 742 m 0
 629 710 602 684 570 684 c 0
 538 684 512 710 512 742 c 0
 512 774 538 800 570 800 c 0
 602 800 629 774 629 742 c 0
629 60 m 2
 629 28 602 2 570 2 c 0
 538 2 512 28 512 60 c 2
 512 554 l 2
 512 586 538 612 570 612 c 0
 602 612 629 586 629 554 c 2
 629 60 l 2
EndSplineSet
Validated: 1
EndChar

StartChar: j
Encoding: 106 106 9
Width: 1024
VWidth: 0
Flags: HW
LayerCount: 2
Fore
SplineSet
539 -97 m 0
 528 -108 512 -115 498 -115 c 0
 484 -115 468 -108 457 -97 c 0
 446 -86 440 -70 440 -56 c 0
 440 -42 446 -26 457 -15 c 0
 494 22 512 71 512 119 c 2
 512 554 l 2
 512 586 538 612 570 612 c 0
 602 612 629 586 629 554 c 2
 629 119 l 2
 629 41 598 -38 539 -97 c 0
570 684 m 0
 538 684 512 710 512 742 c 0
 512 774 538 800 570 800 c 0
 602 800 629 774 629 742 c 0
 629 710 602 684 570 684 c 0
EndSplineSet
Validated: 1
EndChar

StartChar: k
Encoding: 107 107 10
Width: 1024
VWidth: 0
Flags: HW
LayerCount: 2
Fore
SplineSet
135 60 m 2
 135 28 109 2 77 2 c 0
 45 2 19 28 19 60 c 2
 19 742 l 2
 19 774 45 800 77 800 c 0
 109 800 135 774 135 742 c 2
 135 447 l 1
 185 497 241 553 283 595 c 0
 293 606 309 612 324 612 c 0
 325 612 325 612 326 612 c 0
 357 612 382 587 382 556 c 0
 382 540 376 524 365 513 c 0
 307 455 218 365 160 307 c 1
 216 251 309 157 365 101 c 0
 376 90 382 74 382 58 c 0
 382 27 357 2 326 2 c 0
 325 2 325 2 324 2 c 0
 309 2 293 9 283 19 c 0
 246 56 185 116 135 167 c 1
 135 60 l 2
EndSplineSet
Validated: 1
EndChar

StartChar: l
Encoding: 108 108 11
Width: 1024
VWidth: 0
Flags: HW
LayerCount: 2
Fore
SplineSet
77 2 m 0
 45 2 19 28 19 60 c 2
 19 742 l 2
 19 774 45 800 77 800 c 0
 109 800 135 774 135 742 c 2
 135 60 l 2
 135 28 109 2 77 2 c 0
EndSplineSet
Validated: 1
EndChar

StartChar: m
Encoding: 109 109 12
Width: 1024
VWidth: 0
Flags: HW
LayerCount: 2
Fore
SplineSet
291 633 m 0
 382 633 462 589 512 520 c 1
 562 589 642 633 733 633 c 0
 885 633 1007 511 1007 359 c 2
 1007 138 l 2
 1007 109 983 86 954 86 c 0
 925 86 902 109 902 138 c 2
 902 359 l 2
 902 452 826 528 733 528 c 0
 640 528 564 452 564 359 c 2
 564 138 l 2
 564 109 541 86 512 86 c 0
 483 86 460 109 460 138 c 2
 460 359 l 2
 460 452 384 528 291 528 c 0
 198 528 122 452 122 359 c 2
 122 138 l 2
 122 109 99 86 70 86 c 0
 41 86 17 109 17 138 c 2
 17 444 l 1
 17 581 l 2
 17 610 41 633 70 633 c 0
 99 633 122 610 122 581 c 2
 122 574 l 1
 168 611 228 633 291 633 c 0
EndSplineSet
Validated: 1
EndChar

StartChar: n
Encoding: 110 110 13
Width: 1024
VWidth: 0
Flags: HW
LayerCount: 2
Fore
SplineSet
19 554 m 2
 19 586 45 612 77 612 c 0
 109 612 135 586 135 554 c 2
 135 547 l 1
 187 588 253 612 324 612 c 0
 492 612 629 475 629 307 c 2
 629 60 l 2
 629 28 602 2 570 2 c 0
 538 2 512 28 512 60 c 2
 512 307 l 2
 512 411 428 496 324 496 c 0
 220 496 135 411 135 307 c 2
 135 60 l 2
 135 28 109 2 77 2 c 0
 45 2 19 28 19 60 c 2
 19 401 l 1
 19 554 l 2
EndSplineSet
Validated: 1
EndChar

StartChar: o
Encoding: 111 111 14
Width: 1024
VWidth: 0
Flags: HW
LayerCount: 2
Fore
SplineSet
324 625 m 4
 492 625 629 487 629 319 c 4
 629 151 492 14 324 14 c 4
 156 14 19 151 19 319 c 4
 19 487 156 625 324 625 c 4
324 508 m 4
 220 508 135 423 135 319 c 4
 135 215 220 131 324 131 c 4
 428 131 512 215 512 319 c 4
 512 423 428 508 324 508 c 4
EndSplineSet
Validated: 1
EndChar

StartChar: p
Encoding: 112 112 15
Width: 1024
VWidth: 0
Flags: HW
LayerCount: 2
Fore
SplineSet
135 68 m 1
 135 -128 l 2
 135 -160 109 -185 77 -185 c 0
 45 -185 19 -160 19 -128 c 2
 19 307 l 2
 19 475 156 612 324 612 c 0
 492 612 629 475 629 307 c 0
 629 139 492 2 324 2 c 0
 253 2 187 27 135 68 c 1
324 119 m 0
 428 119 512 203 512 307 c 0
 512 411 428 496 324 496 c 0
 220 496 135 411 135 307 c 0
 135 203 220 119 324 119 c 0
EndSplineSet
Validated: 1
EndChar

StartChar: q
Encoding: 113 113 16
Width: 1024
VWidth: 0
Flags: HW
LayerCount: 2
Fore
SplineSet
512 68 m 1
 460 27 395 2 324 2 c 0
 156 2 19 139 19 307 c 0
 19 475 156 612 324 612 c 0
 492 612 629 475 629 307 c 2
 629 -128 l 2
 629 -160 602 -185 570 -185 c 0
 538 -185 512 -160 512 -128 c 2
 512 68 l 1
324 119 m 0
 428 119 512 203 512 307 c 0
 512 411 428 496 324 496 c 0
 220 496 135 411 135 307 c 0
 135 203 220 119 324 119 c 0
EndSplineSet
Validated: 1
EndChar

StartChar: r
Encoding: 114 114 17
Width: 1024
VWidth: 0
Flags: HW
LayerCount: 2
Fore
SplineSet
135 307 m 2
 135 60 l 2
 135 28 109 2 77 2 c 0
 45 2 19 28 19 60 c 2
 19 401 l 1
 19 554 l 2
 19 586 45 612 77 612 c 0
 109 612 135 586 135 554 c 2
 135 547 l 1
 187 588 253 612 324 612 c 0
 356 612 382 586 382 554 c 0
 382 522 356 496 324 496 c 0
 220 496 135 411 135 307 c 2
EndSplineSet
Validated: 1
EndChar

StartChar: s
Encoding: 115 115 18
Width: 1024
VWidth: 0
Flags: HW
LayerCount: 2
Fore
SplineSet
109 522 m 0
 168 581 246 611 324 611 c 0
 402 611 480 581 539 522 c 0
 550 511 555 495 555 481 c 0
 555 467 550 451 539 440 c 0
 528 429 512 424 498 424 c 0
 484 424 468 429 457 440 c 0
 420 477 372 496 324 496 c 0
 294 496 266 488 239 475 c 1
 540 174 l 2
 551 163 556 148 556 134 c 0
 556 119 550 103 539 92 c 0
 480 33 402 3 324 3 c 0
 246 3 168 33 109 92 c 0
 98 103 92 119 92 133 c 0
 92 147 98 163 109 174 c 0
 120 185 136 190 150 190 c 0
 164 190 179 185 190 174 c 0
 227 137 276 119 324 119 c 0
 354 119 383 126 410 139 c 1
 109 440 l 2
 98 451 92 467 92 481 c 0
 92 495 98 511 109 522 c 0
EndSplineSet
Validated: 1
EndChar

StartChar: t
Encoding: 116 116 19
Width: 1024
VWidth: 0
Flags: HW
LayerCount: 2
Fore
SplineSet
135 307 m 2
 135 60 l 2
 135 28 109 2 77 2 c 0
 45 2 19 28 19 60 c 2
 19 401 l 1
 19 742 l 2
 19 774 45 800 77 800 c 0
 109 800 135 774 135 742 c 2
 135 547 l 1
 187 588 253 612 324 612 c 0
 356 612 382 586 382 554 c 0
 382 522 356 496 324 496 c 0
 220 496 135 411 135 307 c 2
EndSplineSet
Validated: 1
EndChar

StartChar: u
Encoding: 117 117 20
Width: 1024
VWidth: 0
Flags: HW
LayerCount: 2
Fore
SplineSet
629 60 m 2
 629 28 602 2 570 2 c 0
 538 2 512 28 512 60 c 2
 512 68 l 1
 460 27 395 2 324 2 c 0
 156 2 19 139 19 307 c 2
 19 554 l 2
 19 586 45 612 77 612 c 0
 109 612 135 586 135 554 c 2
 135 307 l 2
 135 203 220 119 324 119 c 0
 428 119 512 203 512 307 c 2
 512 554 l 2
 512 586 538 612 570 612 c 0
 602 612 629 586 629 554 c 2
 629 213 l 1
 629 60 l 2
EndSplineSet
Validated: 1
EndChar

StartChar: v
Encoding: 118 118 21
Width: 1024
VWidth: 0
Flags: HW
LayerCount: 2
Fore
SplineSet
19 554 m 2
 19 586 45 612 77 612 c 0
 109 612 135 586 135 554 c 2
 135 307 l 2
 135 203 220 119 324 119 c 0
 428 119 512 203 512 307 c 2
 512 554 l 2
 512 586 538 612 570 612 c 0
 602 612 629 586 629 554 c 2
 629 307 l 2
 629 139 492 2 324 2 c 0
 156 2 19 139 19 307 c 2
 19 554 l 2
EndSplineSet
Validated: 1
EndChar

StartChar: w
Encoding: 119 119 22
Width: 1024
VWidth: 0
Flags: HW
LayerCount: 2
Fore
SplineSet
291 86 m 0
 139 86 17 207 17 359 c 2
 17 581 l 2
 17 610 41 633 70 633 c 0
 99 633 122 610 122 581 c 2
 122 359 l 2
 122 266 198 190 291 190 c 0
 384 190 460 266 460 359 c 2
 460 581 l 2
 460 610 483 633 512 633 c 0
 541 633 564 610 564 581 c 2
 564 359 l 2
 564 266 640 190 733 190 c 0
 826 190 902 266 902 359 c 2
 902 581 l 2
 902 610 925 633 954 633 c 0
 983 633 1007 610 1007 581 c 2
 1007 359 l 2
 1007 207 885 86 733 86 c 0
 642 86 562 130 512 199 c 1
 462 130 382 86 291 86 c 0
EndSplineSet
Validated: 1
EndChar

StartChar: x
Encoding: 120 120 23
Width: 1024
VWidth: 0
Flags: HW
LayerCount: 2
Fore
SplineSet
570 612 m 0
 571 612 571 612 572 612 c 0
 603 612 629 587 629 556 c 0
 629 540 622 524 611 513 c 0
 553 455 464 365 406 307 c 1
 462 251 555 157 611 101 c 0
 622 90 629 74 629 58 c 0
 629 27 603 2 572 2 c 0
 571 2 571 2 570 2 c 0
 555 2 539 9 529 19 c 0
 477 71 376 173 324 225 c 1
 265 166 178 78 119 19 c 0
 109 9 92 2 77 2 c 0
 76 2 76 2 75 2 c 0
 44 2 19 27 19 58 c 0
 19 75 24 91 36 101 c 2
 242 307 l 1
 36 513 l 2
 24 524 19 540 19 556 c 0
 19 587 44 612 75 612 c 0
 76 612 76 612 77 612 c 0
 92 612 109 606 119 595 c 2
 324 389 l 1
 383 448 470 536 529 595 c 0
 539 606 555 612 570 612 c 0
EndSplineSet
Validated: 1
EndChar

StartChar: y
Encoding: 121 121 24
Width: 1024
VWidth: 0
Flags: HW
LayerCount: 2
Fore
SplineSet
629 119 m 2
 629 -49 492 -185 324 -185 c 0
 292 -185 265 -160 265 -128 c 0
 265 -96 292 -70 324 -70 c 0
 408 -70 478 -16 503 60 c 1
 453 23 391 2 324 2 c 0
 156 2 19 139 19 307 c 2
 19 554 l 2
 19 586 45 612 77 612 c 0
 109 612 135 586 135 554 c 2
 135 307 l 2
 135 203 220 119 324 119 c 0
 428 119 512 203 512 307 c 2
 512 554 l 2
 512 586 538 612 570 612 c 0
 602 612 629 586 629 554 c 2
 629 336 l 1
 629 119 l 2
EndSplineSet
Validated: 1
EndChar

StartChar: z
Encoding: 122 122 25
Width: 1024
VWidth: 0
Flags: HW
LayerCount: 2
Fore
SplineSet
628 61 m 0
 628 29 602 3 570 3 c 2
 78 3 l 2
 46 3 19 29 19 61 c 0
 19 77 26 91 36 101 c 2
 430 496 l 1
 78 496 l 2
 46 496 19 521 19 553 c 0
 19 585 46 611 78 611 c 2
 570 611 l 2
 602 611 628 585 628 553 c 0
 628 537 621 523 611 513 c 2
 218 119 l 1
 570 119 l 2
 602 119 628 93 628 61 c 0
EndSplineSet
Validated: 1
EndChar

StartChar: A
Encoding: 65 65 26
Width: 1024
VWidth: 0
Flags: W
HStem: 2 117<240 412> 496 117<240 409>
VStem: 19 117<222 392> 512 117<15 68 221 390>
LayerCount: 2
Fore
SplineSet
512 68 m 2
 460 27 395 2 324 2 c 0
 156 2 19 139 19 307 c 0
 19 475 156 612 324 612 c 0
 492 612 629 475 629 307 c 10
 629 60 l 18
 629 28 602 2 570 2 c 0
 538 2 512 28 512 60 c 10
 512 68 l 2
324 119 m 0
 428 119 512 203 512 307 c 0
 512 411 428 496 324 496 c 0
 220 496 135 411 135 307 c 0
 135 203 220 119 324 119 c 0
EndSplineSet
EndChar

StartChar: B
Encoding: 66 66 27
Width: 1024
VWidth: 0
Flags: HW
LayerCount: 2
Fore
SplineSet
77 800 m 0
 109 800 135 774 135 742 c 2
 135 547 l 1
 187 588 253 612 324 612 c 0
 492 612 629 475 629 307 c 0
 629 139 492 2 324 2 c 0
 156 2 19 139 19 307 c 2
 19 742 l 2
 19 774 45 800 77 800 c 0
324 496 m 0
 220 496 135 411 135 307 c 0
 135 203 220 119 324 119 c 0
 428 119 512 203 512 307 c 0
 512 411 428 496 324 496 c 0
EndSplineSet
EndChar

StartChar: C
Encoding: 67 67 28
Width: 1024
VWidth: 0
Flags: HW
LayerCount: 2
Fore
SplineSet
109 104 m 0
 50 163 19 241 19 319 c 0
 19 397 50 477 109 536 c 0
 168 595 246 625 324 625 c 0
 402 625 480 595 539 536 c 0
 550 525 555 509 555 495 c 0
 555 481 550 465 539 454 c 0
 528 443 512 436 498 436 c 0
 484 436 468 443 457 454 c 0
 420 491 372 509 324 509 c 0
 276 509 227 491 190 454 c 0
 153 417 135 367 135 319 c 0
 135 271 153 223 190 186 c 0
 227 149 276 131 324 131 c 0
 372 131 420 149 457 186 c 0
 468 197 484 203 498 203 c 0
 512 203 528 197 539 186 c 0
 550 175 555 159 555 145 c 0
 555 131 550 115 539 104 c 0
 480 45 402 15 324 15 c 0
 246 15 168 45 109 104 c 0
EndSplineSet
EndChar

StartChar: D
Encoding: 68 68 29
Width: 1024
VWidth: 0
Flags: HW
LayerCount: 2
Fore
SplineSet
512 547 m 1
 512 742 l 2
 512 774 538 800 570 800 c 0
 602 800 629 774 629 742 c 2
 629 307 l 2
 629 139 492 3 324 3 c 0
 156 3 19 139 19 307 c 0
 19 475 156 612 324 612 c 0
 395 612 460 588 512 547 c 1
324 496 m 0
 220 496 135 411 135 307 c 0
 135 203 220 119 324 119 c 0
 428 119 512 203 512 307 c 0
 512 411 428 496 324 496 c 0
EndSplineSet
EndChar

StartChar: E
Encoding: 69 69 30
Width: 1024
VWidth: 0
Flags: HW
LayerCount: 2
Fore
SplineSet
324 612 m 0
 492 612 629 475 629 307 c 0
 629 275 602 249 570 249 c 2
 144 249 l 1
 169 173 240 119 324 119 c 0
 356 119 382 92 382 60 c 0
 382 28 356 2 324 2 c 0
 156 2 19 139 19 307 c 0
 19 475 156 612 324 612 c 0
324 496 m 0
 240 496 169 442 144 366 c 1
 503 366 l 1
 478 442 408 496 324 496 c 0
EndSplineSet
EndChar

StartChar: F
Encoding: 70 70 31
Width: 1024
VWidth: 0
Flags: HW
LayerCount: 2
Fore
SplineSet
19 60 m 2
 19 496 l 2
 19 664 156 800 324 800 c 0
 356 800 382 774 382 742 c 0
 382 710 356 684 324 684 c 0
 240 684 169 630 144 554 c 1
 194 591 257 612 324 612 c 0
 356 612 382 586 382 554 c 0
 382 522 356 496 324 496 c 0
 220 496 135 411 135 307 c 2
 135 60 l 2
 135 28 109 2 77 2 c 0
 45 2 19 28 19 60 c 2
EndSplineSet
EndChar

StartChar: G
Encoding: 71 71 32
Width: 1024
VWidth: 0
Flags: HW
LayerCount: 2
Fore
SplineSet
457 -17 m 0
 479 5 494 29 503 57 c 1
 453 20 391 -1 324 -1 c 0
 156 -1 19 136 19 304 c 0
 19 472 156 608 324 608 c 0
 395 608 460 585 512 544 c 1
 512 550 l 2
 512 582 538 608 570 608 c 0
 602 608 629 582 629 550 c 2
 629 304 l 1
 629 116 l 2
 629 38 598 -41 539 -100 c 0
 480 -159 402 -189 324 -189 c 0
 246 -189 168 -159 109 -100 c 0
 98 -89 92 -74 92 -59 c 0
 92 -44 98 -28 109 -17 c 0
 120 -6 136 0 150 0 c 0
 164 0 179 -6 190 -17 c 0
 227 -54 276 -73 324 -73 c 0
 372 -73 420 -54 457 -17 c 0
324 116 m 0
 428 116 512 200 512 304 c 0
 512 408 428 492 324 492 c 0
 220 492 135 408 135 304 c 0
 135 200 220 116 324 116 c 0
EndSplineSet
EndChar

StartChar: H
Encoding: 72 72 33
Width: 1024
VWidth: 0
Flags: HW
LayerCount: 2
Fore
SplineSet
19 742 m 2
 19 774 45 800 77 800 c 0
 109 800 135 774 135 742 c 2
 135 547 l 1
 187 588 253 612 324 612 c 0
 492 612 629 475 629 307 c 2
 629 60 l 2
 629 28 602 2 570 2 c 0
 538 2 512 28 512 60 c 2
 512 307 l 2
 512 411 428 496 324 496 c 0
 220 496 135 411 135 307 c 2
 135 60 l 2
 135 28 109 2 77 2 c 0
 45 2 19 28 19 60 c 2
 19 401 l 1
 19 742 l 2
EndSplineSet
EndChar

StartChar: I
Encoding: 73 73 34
Width: 1024
VWidth: 0
Flags: HW
LayerCount: 2
Fore
SplineSet
629 742 m 0
 629 710 602 684 570 684 c 0
 538 684 512 710 512 742 c 0
 512 774 538 800 570 800 c 0
 602 800 629 774 629 742 c 0
629 60 m 2
 629 28 602 2 570 2 c 0
 538 2 512 28 512 60 c 2
 512 554 l 2
 512 586 538 612 570 612 c 0
 602 612 629 586 629 554 c 2
 629 60 l 2
EndSplineSet
EndChar

StartChar: J
Encoding: 74 74 35
Width: 1024
VWidth: 0
Flags: HW
LayerCount: 2
Fore
SplineSet
539 -97 m 0
 528 -108 512 -115 498 -115 c 0
 484 -115 468 -108 457 -97 c 0
 446 -86 440 -70 440 -56 c 0
 440 -42 446 -26 457 -15 c 0
 494 22 512 71 512 119 c 2
 512 554 l 2
 512 586 538 612 570 612 c 0
 602 612 629 586 629 554 c 2
 629 119 l 2
 629 41 598 -38 539 -97 c 0
570 684 m 0
 538 684 512 710 512 742 c 0
 512 774 538 800 570 800 c 0
 602 800 629 774 629 742 c 0
 629 710 602 684 570 684 c 0
EndSplineSet
EndChar

StartChar: K
Encoding: 75 75 36
Width: 1024
VWidth: 0
Flags: HW
LayerCount: 2
Fore
SplineSet
135 60 m 2
 135 28 109 2 77 2 c 0
 45 2 19 28 19 60 c 2
 19 742 l 2
 19 774 45 800 77 800 c 0
 109 800 135 774 135 742 c 2
 135 447 l 1
 185 497 241 553 283 595 c 0
 293 606 309 612 324 612 c 0
 325 612 325 612 326 612 c 0
 357 612 382 587 382 556 c 0
 382 540 376 524 365 513 c 0
 307 455 218 365 160 307 c 1
 216 251 309 157 365 101 c 0
 376 90 382 74 382 58 c 0
 382 27 357 2 326 2 c 0
 325 2 325 2 324 2 c 0
 309 2 293 9 283 19 c 0
 246 56 185 116 135 167 c 1
 135 60 l 2
EndSplineSet
EndChar

StartChar: L
Encoding: 76 76 37
Width: 1024
VWidth: 0
Flags: HW
LayerCount: 2
Fore
SplineSet
77 2 m 0
 45 2 19 28 19 60 c 2
 19 742 l 2
 19 774 45 800 77 800 c 0
 109 800 135 774 135 742 c 2
 135 60 l 2
 135 28 109 2 77 2 c 0
EndSplineSet
EndChar

StartChar: M
Encoding: 77 77 38
Width: 1024
VWidth: 0
Flags: HW
LayerCount: 2
Fore
SplineSet
291 633 m 0
 382 633 462 589 512 520 c 1
 562 589 642 633 733 633 c 0
 885 633 1007 511 1007 359 c 2
 1007 138 l 2
 1007 109 983 86 954 86 c 0
 925 86 902 109 902 138 c 2
 902 359 l 2
 902 452 826 528 733 528 c 0
 640 528 564 452 564 359 c 2
 564 138 l 2
 564 109 541 86 512 86 c 0
 483 86 460 109 460 138 c 2
 460 359 l 2
 460 452 384 528 291 528 c 0
 198 528 122 452 122 359 c 2
 122 138 l 2
 122 109 99 86 70 86 c 0
 41 86 17 109 17 138 c 2
 17 444 l 1
 17 581 l 2
 17 610 41 633 70 633 c 0
 99 633 122 610 122 581 c 2
 122 574 l 1
 168 611 228 633 291 633 c 0
EndSplineSet
EndChar

StartChar: N
Encoding: 78 78 39
Width: 1024
VWidth: 0
Flags: HW
LayerCount: 2
Fore
SplineSet
19 554 m 2
 19 586 45 612 77 612 c 0
 109 612 135 586 135 554 c 2
 135 547 l 1
 187 588 253 612 324 612 c 0
 492 612 629 475 629 307 c 2
 629 60 l 2
 629 28 602 2 570 2 c 0
 538 2 512 28 512 60 c 2
 512 307 l 2
 512 411 428 496 324 496 c 0
 220 496 135 411 135 307 c 2
 135 60 l 2
 135 28 109 2 77 2 c 0
 45 2 19 28 19 60 c 2
 19 401 l 1
 19 554 l 2
EndSplineSet
EndChar

StartChar: O
Encoding: 79 79 40
Width: 1024
VWidth: 0
Flags: HW
LayerCount: 2
Fore
SplineSet
324 625 m 4
 492 625 629 487 629 319 c 4
 629 151 492 14 324 14 c 4
 156 14 19 151 19 319 c 4
 19 487 156 625 324 625 c 4
324 508 m 4
 220 508 135 423 135 319 c 4
 135 215 220 131 324 131 c 4
 428 131 512 215 512 319 c 4
 512 423 428 508 324 508 c 4
EndSplineSet
EndChar

StartChar: P
Encoding: 80 80 41
Width: 1024
VWidth: 0
Flags: HW
LayerCount: 2
Fore
SplineSet
135 68 m 1
 135 -128 l 2
 135 -160 109 -185 77 -185 c 0
 45 -185 19 -160 19 -128 c 2
 19 307 l 2
 19 475 156 612 324 612 c 0
 492 612 629 475 629 307 c 0
 629 139 492 2 324 2 c 0
 253 2 187 27 135 68 c 1
324 119 m 0
 428 119 512 203 512 307 c 0
 512 411 428 496 324 496 c 0
 220 496 135 411 135 307 c 0
 135 203 220 119 324 119 c 0
EndSplineSet
EndChar

StartChar: Q
Encoding: 81 81 42
Width: 1024
VWidth: 0
Flags: HW
LayerCount: 2
Fore
SplineSet
512 68 m 1
 460 27 395 2 324 2 c 0
 156 2 19 139 19 307 c 0
 19 475 156 612 324 612 c 0
 492 612 629 475 629 307 c 2
 629 -128 l 2
 629 -160 602 -185 570 -185 c 0
 538 -185 512 -160 512 -128 c 2
 512 68 l 1
324 119 m 0
 428 119 512 203 512 307 c 0
 512 411 428 496 324 496 c 0
 220 496 135 411 135 307 c 0
 135 203 220 119 324 119 c 0
EndSplineSet
EndChar

StartChar: R
Encoding: 82 82 43
Width: 1024
VWidth: 0
Flags: HW
LayerCount: 2
Fore
SplineSet
135 307 m 2
 135 60 l 2
 135 28 109 2 77 2 c 0
 45 2 19 28 19 60 c 2
 19 401 l 1
 19 554 l 2
 19 586 45 612 77 612 c 0
 109 612 135 586 135 554 c 2
 135 547 l 1
 187 588 253 612 324 612 c 0
 356 612 382 586 382 554 c 0
 382 522 356 496 324 496 c 0
 220 496 135 411 135 307 c 2
EndSplineSet
EndChar

StartChar: S
Encoding: 83 83 44
Width: 1024
VWidth: 0
Flags: HW
LayerCount: 2
Fore
SplineSet
109 522 m 0
 168 581 246 611 324 611 c 0
 402 611 480 581 539 522 c 0
 550 511 555 495 555 481 c 0
 555 467 550 451 539 440 c 0
 528 429 512 424 498 424 c 0
 484 424 468 429 457 440 c 0
 420 477 372 496 324 496 c 0
 294 496 266 488 239 475 c 1
 540 174 l 2
 551 163 556 148 556 134 c 0
 556 119 550 103 539 92 c 0
 480 33 402 3 324 3 c 0
 246 3 168 33 109 92 c 0
 98 103 92 119 92 133 c 0
 92 147 98 163 109 174 c 0
 120 185 136 190 150 190 c 0
 164 190 179 185 190 174 c 0
 227 137 276 119 324 119 c 0
 354 119 383 126 410 139 c 1
 109 440 l 2
 98 451 92 467 92 481 c 0
 92 495 98 511 109 522 c 0
EndSplineSet
EndChar

StartChar: T
Encoding: 84 84 45
Width: 1024
VWidth: 0
Flags: HW
LayerCount: 2
Fore
SplineSet
135 307 m 2
 135 60 l 2
 135 28 109 2 77 2 c 0
 45 2 19 28 19 60 c 2
 19 401 l 1
 19 742 l 2
 19 774 45 800 77 800 c 0
 109 800 135 774 135 742 c 2
 135 547 l 1
 187 588 253 612 324 612 c 0
 356 612 382 586 382 554 c 0
 382 522 356 496 324 496 c 0
 220 496 135 411 135 307 c 2
EndSplineSet
EndChar

StartChar: U
Encoding: 85 85 46
Width: 1024
VWidth: 0
Flags: HW
LayerCount: 2
Fore
SplineSet
629 60 m 2
 629 28 602 2 570 2 c 0
 538 2 512 28 512 60 c 2
 512 68 l 1
 460 27 395 2 324 2 c 0
 156 2 19 139 19 307 c 2
 19 554 l 2
 19 586 45 612 77 612 c 0
 109 612 135 586 135 554 c 2
 135 307 l 2
 135 203 220 119 324 119 c 0
 428 119 512 203 512 307 c 2
 512 554 l 2
 512 586 538 612 570 612 c 0
 602 612 629 586 629 554 c 2
 629 213 l 1
 629 60 l 2
EndSplineSet
EndChar

StartChar: V
Encoding: 86 86 47
Width: 1024
VWidth: 0
Flags: HW
LayerCount: 2
Fore
SplineSet
19 554 m 2
 19 586 45 612 77 612 c 0
 109 612 135 586 135 554 c 2
 135 307 l 2
 135 203 220 119 324 119 c 0
 428 119 512 203 512 307 c 2
 512 554 l 2
 512 586 538 612 570 612 c 0
 602 612 629 586 629 554 c 2
 629 307 l 2
 629 139 492 2 324 2 c 0
 156 2 19 139 19 307 c 2
 19 554 l 2
EndSplineSet
EndChar

StartChar: W
Encoding: 87 87 48
Width: 1024
VWidth: 0
Flags: HW
LayerCount: 2
Fore
SplineSet
291 86 m 0
 139 86 17 207 17 359 c 2
 17 581 l 2
 17 610 41 633 70 633 c 0
 99 633 122 610 122 581 c 2
 122 359 l 2
 122 266 198 190 291 190 c 0
 384 190 460 266 460 359 c 2
 460 581 l 2
 460 610 483 633 512 633 c 0
 541 633 564 610 564 581 c 2
 564 359 l 2
 564 266 640 190 733 190 c 0
 826 190 902 266 902 359 c 2
 902 581 l 2
 902 610 925 633 954 633 c 0
 983 633 1007 610 1007 581 c 2
 1007 359 l 2
 1007 207 885 86 733 86 c 0
 642 86 562 130 512 199 c 1
 462 130 382 86 291 86 c 0
EndSplineSet
EndChar

StartChar: X
Encoding: 88 88 49
Width: 1024
VWidth: 0
Flags: HW
LayerCount: 2
Fore
SplineSet
570 612 m 0
 571 612 571 612 572 612 c 0
 603 612 629 587 629 556 c 0
 629 540 622 524 611 513 c 0
 553 455 464 365 406 307 c 1
 462 251 555 157 611 101 c 0
 622 90 629 74 629 58 c 0
 629 27 603 2 572 2 c 0
 571 2 571 2 570 2 c 0
 555 2 539 9 529 19 c 0
 477 71 376 173 324 225 c 1
 265 166 178 78 119 19 c 0
 109 9 92 2 77 2 c 0
 76 2 76 2 75 2 c 0
 44 2 19 27 19 58 c 0
 19 75 24 91 36 101 c 2
 242 307 l 1
 36 513 l 2
 24 524 19 540 19 556 c 0
 19 587 44 612 75 612 c 0
 76 612 76 612 77 612 c 0
 92 612 109 606 119 595 c 2
 324 389 l 1
 383 448 470 536 529 595 c 0
 539 606 555 612 570 612 c 0
EndSplineSet
EndChar

StartChar: Y
Encoding: 89 89 50
Width: 1024
VWidth: 0
Flags: HW
LayerCount: 2
Fore
SplineSet
629 119 m 2
 629 -49 492 -185 324 -185 c 0
 292 -185 265 -160 265 -128 c 0
 265 -96 292 -70 324 -70 c 0
 408 -70 478 -16 503 60 c 1
 453 23 391 2 324 2 c 0
 156 2 19 139 19 307 c 2
 19 554 l 2
 19 586 45 612 77 612 c 0
 109 612 135 586 135 554 c 2
 135 307 l 2
 135 203 220 119 324 119 c 0
 428 119 512 203 512 307 c 2
 512 554 l 2
 512 586 538 612 570 612 c 0
 602 612 629 586 629 554 c 2
 629 336 l 1
 629 119 l 2
EndSplineSet
EndChar

StartChar: Z
Encoding: 90 90 51
Width: 1024
VWidth: 0
Flags: HW
LayerCount: 2
Fore
SplineSet
628 61 m 0
 628 29 602 3 570 3 c 2
 78 3 l 2
 46 3 19 29 19 61 c 0
 19 77 26 91 36 101 c 2
 430 496 l 1
 78 496 l 2
 46 496 19 521 19 553 c 0
 19 585 46 611 78 611 c 2
 570 611 l 2
 602 611 628 585 628 553 c 0
 628 537 621 523 611 513 c 2
 218 119 l 1
 570 119 l 2
 602 119 628 93 628 61 c 0
EndSplineSet
EndChar

StartChar: Aring
Encoding: 197 197 52
Width: 1024
VWidth: 0
Flags: W
HStem: 2 117<240 412> 496 117<240 409>
VStem: 19 117<222 392> 512 117<15 68 221 390>
LayerCount: 2
Fore
SplineSet
512 68 m 2
 460 27 395 2 324 2 c 0
 156 2 19 139 19 307 c 0
 19 475 156 612 324 612 c 0
 492 612 629 475 629 307 c 10
 629 60 l 18
 629 28 602 2 570 2 c 0
 538 2 512 28 512 60 c 10
 512 68 l 2
324 119 m 0
 428 119 512 203 512 307 c 0
 512 411 428 496 324 496 c 0
 220 496 135 411 135 307 c 0
 135 203 220 119 324 119 c 0
EndSplineSet
EndChar

StartChar: Adieresis
Encoding: 196 196 53
Width: 1024
VWidth: 0
Flags: W
HStem: 2 117<240 412> 496 117<240 409>
VStem: 19 117<222 392> 512 117<15 68 221 390>
LayerCount: 2
Fore
SplineSet
512 68 m 2
 460 27 395 2 324 2 c 0
 156 2 19 139 19 307 c 0
 19 475 156 612 324 612 c 0
 492 612 629 475 629 307 c 10
 629 60 l 18
 629 28 602 2 570 2 c 0
 538 2 512 28 512 60 c 10
 512 68 l 2
324 119 m 0
 428 119 512 203 512 307 c 0
 512 411 428 496 324 496 c 0
 220 496 135 411 135 307 c 0
 135 203 220 119 324 119 c 0
EndSplineSet
EndChar

StartChar: Agrave
Encoding: 192 192 54
Width: 1024
VWidth: 0
Flags: W
HStem: 2 117<240 412> 496 117<240 409>
VStem: 19 117<222 392> 512 117<15 68 221 390>
LayerCount: 2
Fore
SplineSet
512 68 m 2
 460 27 395 2 324 2 c 0
 156 2 19 139 19 307 c 0
 19 475 156 612 324 612 c 0
 492 612 629 475 629 307 c 10
 629 60 l 18
 629 28 602 2 570 2 c 0
 538 2 512 28 512 60 c 10
 512 68 l 2
324 119 m 0
 428 119 512 203 512 307 c 0
 512 411 428 496 324 496 c 0
 220 496 135 411 135 307 c 0
 135 203 220 119 324 119 c 0
EndSplineSet
EndChar

StartChar: Aacute
Encoding: 193 193 55
Width: 1024
VWidth: 0
Flags: W
HStem: 2 117<240 412> 496 117<240 409>
VStem: 19 117<222 392> 512 117<15 68 221 390>
LayerCount: 2
Fore
SplineSet
512 68 m 2
 460 27 395 2 324 2 c 0
 156 2 19 139 19 307 c 0
 19 475 156 612 324 612 c 0
 492 612 629 475 629 307 c 10
 629 60 l 18
 629 28 602 2 570 2 c 0
 538 2 512 28 512 60 c 10
 512 68 l 2
324 119 m 0
 428 119 512 203 512 307 c 0
 512 411 428 496 324 496 c 0
 220 496 135 411 135 307 c 0
 135 203 220 119 324 119 c 0
EndSplineSet
EndChar

StartChar: Acircumflex
Encoding: 194 194 56
Width: 1024
VWidth: 0
Flags: W
HStem: 2 117<240 412> 496 117<240 409>
VStem: 19 117<222 392> 512 117<15 68 221 390>
LayerCount: 2
Fore
SplineSet
512 68 m 2
 460 27 395 2 324 2 c 0
 156 2 19 139 19 307 c 0
 19 475 156 612 324 612 c 0
 492 612 629 475 629 307 c 10
 629 60 l 18
 629 28 602 2 570 2 c 0
 538 2 512 28 512 60 c 10
 512 68 l 2
324 119 m 0
 428 119 512 203 512 307 c 0
 512 411 428 496 324 496 c 0
 220 496 135 411 135 307 c 0
 135 203 220 119 324 119 c 0
EndSplineSet
EndChar

StartChar: Atilde
Encoding: 195 195 57
Width: 1024
VWidth: 0
Flags: W
HStem: 2 117<240 412> 496 117<240 409>
VStem: 19 117<222 392> 512 117<15 68 221 390>
LayerCount: 2
Fore
SplineSet
512 68 m 2
 460 27 395 2 324 2 c 0
 156 2 19 139 19 307 c 0
 19 475 156 612 324 612 c 0
 492 612 629 475 629 307 c 10
 629 60 l 18
 629 28 602 2 570 2 c 0
 538 2 512 28 512 60 c 10
 512 68 l 2
324 119 m 0
 428 119 512 203 512 307 c 0
 512 411 428 496 324 496 c 0
 220 496 135 411 135 307 c 0
 135 203 220 119 324 119 c 0
EndSplineSet
EndChar

StartChar: agrave
Encoding: 224 224 58
Width: 1024
VWidth: 0
Flags: W
HStem: 2 117<240 412> 496 117<240 409>
VStem: 19 117<222 392> 512 117<15 68 221 390>
LayerCount: 2
Fore
SplineSet
512 68 m 2
 460 27 395 2 324 2 c 0
 156 2 19 139 19 307 c 0
 19 475 156 612 324 612 c 0
 492 612 629 475 629 307 c 10
 629 60 l 18
 629 28 602 2 570 2 c 0
 538 2 512 28 512 60 c 10
 512 68 l 2
324 119 m 0
 428 119 512 203 512 307 c 0
 512 411 428 496 324 496 c 0
 220 496 135 411 135 307 c 0
 135 203 220 119 324 119 c 0
EndSplineSet
EndChar

StartChar: aacute
Encoding: 225 225 59
Width: 1024
VWidth: 0
Flags: W
HStem: 2 117<240 412> 496 117<240 409>
VStem: 19 117<222 392> 512 117<15 68 221 390>
LayerCount: 2
Fore
SplineSet
512 68 m 2
 460 27 395 2 324 2 c 0
 156 2 19 139 19 307 c 0
 19 475 156 612 324 612 c 0
 492 612 629 475 629 307 c 10
 629 60 l 18
 629 28 602 2 570 2 c 0
 538 2 512 28 512 60 c 10
 512 68 l 2
324 119 m 0
 428 119 512 203 512 307 c 0
 512 411 428 496 324 496 c 0
 220 496 135 411 135 307 c 0
 135 203 220 119 324 119 c 0
EndSplineSet
EndChar

StartChar: acircumflex
Encoding: 226 226 60
Width: 1024
VWidth: 0
Flags: W
HStem: 2 117<240 412> 496 117<240 409>
VStem: 19 117<222 392> 512 117<15 68 221 390>
LayerCount: 2
Fore
SplineSet
512 68 m 2
 460 27 395 2 324 2 c 0
 156 2 19 139 19 307 c 0
 19 475 156 612 324 612 c 0
 492 612 629 475 629 307 c 10
 629 60 l 18
 629 28 602 2 570 2 c 0
 538 2 512 28 512 60 c 10
 512 68 l 2
324 119 m 0
 428 119 512 203 512 307 c 0
 512 411 428 496 324 496 c 0
 220 496 135 411 135 307 c 0
 135 203 220 119 324 119 c 0
EndSplineSet
EndChar

StartChar: atilde
Encoding: 227 227 61
Width: 1024
VWidth: 0
Flags: W
HStem: 2 117<240 412> 496 117<240 409>
VStem: 19 117<222 392> 512 117<15 68 221 390>
LayerCount: 2
Fore
SplineSet
512 68 m 2
 460 27 395 2 324 2 c 0
 156 2 19 139 19 307 c 0
 19 475 156 612 324 612 c 0
 492 612 629 475 629 307 c 10
 629 60 l 18
 629 28 602 2 570 2 c 0
 538 2 512 28 512 60 c 10
 512 68 l 2
324 119 m 0
 428 119 512 203 512 307 c 0
 512 411 428 496 324 496 c 0
 220 496 135 411 135 307 c 0
 135 203 220 119 324 119 c 0
EndSplineSet
EndChar

StartChar: adieresis
Encoding: 228 228 62
Width: 1024
VWidth: 0
Flags: W
HStem: 2 117<240 412> 496 117<240 409>
VStem: 19 117<222 392> 512 117<15 68 221 390>
LayerCount: 2
Fore
SplineSet
512 68 m 2
 460 27 395 2 324 2 c 0
 156 2 19 139 19 307 c 0
 19 475 156 612 324 612 c 0
 492 612 629 475 629 307 c 10
 629 60 l 18
 629 28 602 2 570 2 c 0
 538 2 512 28 512 60 c 10
 512 68 l 2
324 119 m 0
 428 119 512 203 512 307 c 0
 512 411 428 496 324 496 c 0
 220 496 135 411 135 307 c 0
 135 203 220 119 324 119 c 0
EndSplineSet
EndChar

StartChar: aring
Encoding: 229 229 63
Width: 1024
VWidth: 0
Flags: W
HStem: 2 117<240 412> 496 117<240 409>
VStem: 19 117<222 392> 512 117<15 68 221 390>
LayerCount: 2
Fore
SplineSet
512 68 m 2
 460 27 395 2 324 2 c 0
 156 2 19 139 19 307 c 0
 19 475 156 612 324 612 c 0
 492 612 629 475 629 307 c 10
 629 60 l 18
 629 28 602 2 570 2 c 0
 538 2 512 28 512 60 c 10
 512 68 l 2
324 119 m 0
 428 119 512 203 512 307 c 0
 512 411 428 496 324 496 c 0
 220 496 135 411 135 307 c 0
 135 203 220 119 324 119 c 0
EndSplineSet
EndChar

StartChar: Ograve
Encoding: 210 210 64
Width: 1024
VWidth: 0
Flags: HW
LayerCount: 2
Fore
SplineSet
324 625 m 4
 492 625 629 487 629 319 c 4
 629 151 492 14 324 14 c 4
 156 14 19 151 19 319 c 4
 19 487 156 625 324 625 c 4
324 508 m 4
 220 508 135 423 135 319 c 4
 135 215 220 131 324 131 c 4
 428 131 512 215 512 319 c 4
 512 423 428 508 324 508 c 4
EndSplineSet
EndChar

StartChar: Oacute
Encoding: 211 211 65
Width: 1024
VWidth: 0
Flags: HW
LayerCount: 2
Fore
SplineSet
324 625 m 4
 492 625 629 487 629 319 c 4
 629 151 492 14 324 14 c 4
 156 14 19 151 19 319 c 4
 19 487 156 625 324 625 c 4
324 508 m 4
 220 508 135 423 135 319 c 4
 135 215 220 131 324 131 c 4
 428 131 512 215 512 319 c 4
 512 423 428 508 324 508 c 4
EndSplineSet
EndChar

StartChar: Ocircumflex
Encoding: 212 212 66
Width: 1024
VWidth: 0
Flags: HW
LayerCount: 2
Fore
SplineSet
324 625 m 4
 492 625 629 487 629 319 c 4
 629 151 492 14 324 14 c 4
 156 14 19 151 19 319 c 4
 19 487 156 625 324 625 c 4
324 508 m 4
 220 508 135 423 135 319 c 4
 135 215 220 131 324 131 c 4
 428 131 512 215 512 319 c 4
 512 423 428 508 324 508 c 4
EndSplineSet
EndChar

StartChar: Otilde
Encoding: 213 213 67
Width: 1024
VWidth: 0
Flags: HW
LayerCount: 2
Fore
SplineSet
324 625 m 4
 492 625 629 487 629 319 c 4
 629 151 492 14 324 14 c 4
 156 14 19 151 19 319 c 4
 19 487 156 625 324 625 c 4
324 508 m 4
 220 508 135 423 135 319 c 4
 135 215 220 131 324 131 c 4
 428 131 512 215 512 319 c 4
 512 423 428 508 324 508 c 4
EndSplineSet
EndChar

StartChar: Odieresis
Encoding: 214 214 68
Width: 1024
VWidth: 0
Flags: HW
LayerCount: 2
Fore
SplineSet
324 625 m 4
 492 625 629 487 629 319 c 4
 629 151 492 14 324 14 c 4
 156 14 19 151 19 319 c 4
 19 487 156 625 324 625 c 4
324 508 m 4
 220 508 135 423 135 319 c 4
 135 215 220 131 324 131 c 4
 428 131 512 215 512 319 c 4
 512 423 428 508 324 508 c 4
EndSplineSet
EndChar

StartChar: Oslash
Encoding: 216 216 69
Width: 1024
VWidth: 0
Flags: HW
LayerCount: 2
Fore
SplineSet
324 625 m 4
 492 625 629 487 629 319 c 4
 629 151 492 14 324 14 c 4
 156 14 19 151 19 319 c 4
 19 487 156 625 324 625 c 4
324 508 m 4
 220 508 135 423 135 319 c 4
 135 215 220 131 324 131 c 4
 428 131 512 215 512 319 c 4
 512 423 428 508 324 508 c 4
EndSplineSet
EndChar

StartChar: ograve
Encoding: 242 242 70
Width: 1024
VWidth: 0
Flags: HW
LayerCount: 2
Fore
SplineSet
324 625 m 4
 492 625 629 487 629 319 c 4
 629 151 492 14 324 14 c 4
 156 14 19 151 19 319 c 4
 19 487 156 625 324 625 c 4
324 508 m 4
 220 508 135 423 135 319 c 4
 135 215 220 131 324 131 c 4
 428 131 512 215 512 319 c 4
 512 423 428 508 324 508 c 4
EndSplineSet
EndChar

StartChar: oacute
Encoding: 243 243 71
Width: 1024
VWidth: 0
Flags: HW
LayerCount: 2
Fore
SplineSet
324 625 m 4
 492 625 629 487 629 319 c 4
 629 151 492 14 324 14 c 4
 156 14 19 151 19 319 c 4
 19 487 156 625 324 625 c 4
324 508 m 4
 220 508 135 423 135 319 c 4
 135 215 220 131 324 131 c 4
 428 131 512 215 512 319 c 4
 512 423 428 508 324 508 c 4
EndSplineSet
EndChar

StartChar: ocircumflex
Encoding: 244 244 72
Width: 1024
VWidth: 0
Flags: HW
LayerCount: 2
Fore
SplineSet
324 625 m 4
 492 625 629 487 629 319 c 4
 629 151 492 14 324 14 c 4
 156 14 19 151 19 319 c 4
 19 487 156 625 324 625 c 4
324 508 m 4
 220 508 135 423 135 319 c 4
 135 215 220 131 324 131 c 4
 428 131 512 215 512 319 c 4
 512 423 428 508 324 508 c 4
EndSplineSet
EndChar

StartChar: otilde
Encoding: 245 245 73
Width: 1024
VWidth: 0
Flags: HW
LayerCount: 2
Fore
SplineSet
324 625 m 4
 492 625 629 487 629 319 c 4
 629 151 492 14 324 14 c 4
 156 14 19 151 19 319 c 4
 19 487 156 625 324 625 c 4
324 508 m 4
 220 508 135 423 135 319 c 4
 135 215 220 131 324 131 c 4
 428 131 512 215 512 319 c 4
 512 423 428 508 324 508 c 4
EndSplineSet
EndChar

StartChar: odieresis
Encoding: 246 246 74
Width: 1024
VWidth: 0
Flags: HW
LayerCount: 2
Fore
SplineSet
324 625 m 4
 492 625 629 487 629 319 c 4
 629 151 492 14 324 14 c 4
 156 14 19 151 19 319 c 4
 19 487 156 625 324 625 c 4
324 508 m 4
 220 508 135 423 135 319 c 4
 135 215 220 131 324 131 c 4
 428 131 512 215 512 319 c 4
 512 423 428 508 324 508 c 4
EndSplineSet
EndChar

StartChar: oslash
Encoding: 248 248 75
Width: 1024
VWidth: 0
Flags: HW
LayerCount: 2
Fore
SplineSet
324 625 m 4
 492 625 629 487 629 319 c 4
 629 151 492 14 324 14 c 4
 156 14 19 151 19 319 c 4
 19 487 156 625 324 625 c 4
324 508 m 4
 220 508 135 423 135 319 c 4
 135 215 220 131 324 131 c 4
 428 131 512 215 512 319 c 4
 512 423 428 508 324 508 c 4
EndSplineSet
EndChar

StartChar: ugrave
Encoding: 249 249 76
Width: 1024
VWidth: 0
Flags: HW
LayerCount: 2
Fore
SplineSet
629 60 m 2
 629 28 602 2 570 2 c 0
 538 2 512 28 512 60 c 2
 512 68 l 1
 460 27 395 2 324 2 c 0
 156 2 19 139 19 307 c 2
 19 554 l 2
 19 586 45 612 77 612 c 0
 109 612 135 586 135 554 c 2
 135 307 l 2
 135 203 220 119 324 119 c 0
 428 119 512 203 512 307 c 2
 512 554 l 2
 512 586 538 612 570 612 c 0
 602 612 629 586 629 554 c 2
 629 213 l 1
 629 60 l 2
EndSplineSet
EndChar

StartChar: uacute
Encoding: 250 250 77
Width: 1024
VWidth: 0
Flags: HW
LayerCount: 2
Fore
SplineSet
629 60 m 2
 629 28 602 2 570 2 c 0
 538 2 512 28 512 60 c 2
 512 68 l 1
 460 27 395 2 324 2 c 0
 156 2 19 139 19 307 c 2
 19 554 l 2
 19 586 45 612 77 612 c 0
 109 612 135 586 135 554 c 2
 135 307 l 2
 135 203 220 119 324 119 c 0
 428 119 512 203 512 307 c 2
 512 554 l 2
 512 586 538 612 570 612 c 0
 602 612 629 586 629 554 c 2
 629 213 l 1
 629 60 l 2
EndSplineSet
EndChar

StartChar: ucircumflex
Encoding: 251 251 78
Width: 1024
VWidth: 0
Flags: HW
LayerCount: 2
Fore
SplineSet
629 60 m 2
 629 28 602 2 570 2 c 0
 538 2 512 28 512 60 c 2
 512 68 l 1
 460 27 395 2 324 2 c 0
 156 2 19 139 19 307 c 2
 19 554 l 2
 19 586 45 612 77 612 c 0
 109 612 135 586 135 554 c 2
 135 307 l 2
 135 203 220 119 324 119 c 0
 428 119 512 203 512 307 c 2
 512 554 l 2
 512 586 538 612 570 612 c 0
 602 612 629 586 629 554 c 2
 629 213 l 1
 629 60 l 2
EndSplineSet
EndChar

StartChar: udieresis
Encoding: 252 252 79
Width: 1024
VWidth: 0
Flags: HW
LayerCount: 2
Fore
SplineSet
629 60 m 2
 629 28 602 2 570 2 c 0
 538 2 512 28 512 60 c 2
 512 68 l 1
 460 27 395 2 324 2 c 0
 156 2 19 139 19 307 c 2
 19 554 l 2
 19 586 45 612 77 612 c 0
 109 612 135 586 135 554 c 2
 135 307 l 2
 135 203 220 119 324 119 c 0
 428 119 512 203 512 307 c 2
 512 554 l 2
 512 586 538 612 570 612 c 0
 602 612 629 586 629 554 c 2
 629 213 l 1
 629 60 l 2
EndSplineSet
EndChar

StartChar: Ugrave
Encoding: 217 217 80
Width: 1024
VWidth: 0
Flags: HW
LayerCount: 2
Fore
SplineSet
629 60 m 2
 629 28 602 2 570 2 c 0
 538 2 512 28 512 60 c 2
 512 68 l 1
 460 27 395 2 324 2 c 0
 156 2 19 139 19 307 c 2
 19 554 l 2
 19 586 45 612 77 612 c 0
 109 612 135 586 135 554 c 2
 135 307 l 2
 135 203 220 119 324 119 c 0
 428 119 512 203 512 307 c 2
 512 554 l 2
 512 586 538 612 570 612 c 0
 602 612 629 586 629 554 c 2
 629 213 l 1
 629 60 l 2
EndSplineSet
EndChar

StartChar: Uacute
Encoding: 218 218 81
Width: 1024
VWidth: 0
Flags: HW
LayerCount: 2
Fore
SplineSet
629 60 m 2
 629 28 602 2 570 2 c 0
 538 2 512 28 512 60 c 2
 512 68 l 1
 460 27 395 2 324 2 c 0
 156 2 19 139 19 307 c 2
 19 554 l 2
 19 586 45 612 77 612 c 0
 109 612 135 586 135 554 c 2
 135 307 l 2
 135 203 220 119 324 119 c 0
 428 119 512 203 512 307 c 2
 512 554 l 2
 512 586 538 612 570 612 c 0
 602 612 629 586 629 554 c 2
 629 213 l 1
 629 60 l 2
EndSplineSet
EndChar

StartChar: Ucircumflex
Encoding: 219 219 82
Width: 1024
VWidth: 0
Flags: HW
LayerCount: 2
Fore
SplineSet
629 60 m 2
 629 28 602 2 570 2 c 0
 538 2 512 28 512 60 c 2
 512 68 l 1
 460 27 395 2 324 2 c 0
 156 2 19 139 19 307 c 2
 19 554 l 2
 19 586 45 612 77 612 c 0
 109 612 135 586 135 554 c 2
 135 307 l 2
 135 203 220 119 324 119 c 0
 428 119 512 203 512 307 c 2
 512 554 l 2
 512 586 538 612 570 612 c 0
 602 612 629 586 629 554 c 2
 629 213 l 1
 629 60 l 2
EndSplineSet
EndChar

StartChar: Udieresis
Encoding: 220 220 83
Width: 1024
VWidth: 0
Flags: HW
LayerCount: 2
Fore
SplineSet
629 60 m 2
 629 28 602 2 570 2 c 0
 538 2 512 28 512 60 c 2
 512 68 l 1
 460 27 395 2 324 2 c 0
 156 2 19 139 19 307 c 2
 19 554 l 2
 19 586 45 612 77 612 c 0
 109 612 135 586 135 554 c 2
 135 307 l 2
 135 203 220 119 324 119 c 0
 428 119 512 203 512 307 c 2
 512 554 l 2
 512 586 538 612 570 612 c 0
 602 612 629 586 629 554 c 2
 629 213 l 1
 629 60 l 2
EndSplineSet
EndChar

StartChar: Yacute
Encoding: 221 221 84
Width: 1024
VWidth: 0
Flags: HW
LayerCount: 2
Fore
SplineSet
629 119 m 2
 629 -49 492 -185 324 -185 c 0
 292 -185 265 -160 265 -128 c 0
 265 -96 292 -70 324 -70 c 0
 408 -70 478 -16 503 60 c 1
 453 23 391 2 324 2 c 0
 156 2 19 139 19 307 c 2
 19 554 l 2
 19 586 45 612 77 612 c 0
 109 612 135 586 135 554 c 2
 135 307 l 2
 135 203 220 119 324 119 c 0
 428 119 512 203 512 307 c 2
 512 554 l 2
 512 586 538 612 570 612 c 0
 602 612 629 586 629 554 c 2
 629 336 l 1
 629 119 l 2
EndSplineSet
EndChar

StartChar: yacute
Encoding: 253 253 85
Width: 1024
VWidth: 0
Flags: HW
LayerCount: 2
Fore
SplineSet
629 119 m 2
 629 -49 492 -185 324 -185 c 0
 292 -185 265 -160 265 -128 c 0
 265 -96 292 -70 324 -70 c 0
 408 -70 478 -16 503 60 c 1
 453 23 391 2 324 2 c 0
 156 2 19 139 19 307 c 2
 19 554 l 2
 19 586 45 612 77 612 c 0
 109 612 135 586 135 554 c 2
 135 307 l 2
 135 203 220 119 324 119 c 0
 428 119 512 203 512 307 c 2
 512 554 l 2
 512 586 538 612 570 612 c 0
 602 612 629 586 629 554 c 2
 629 336 l 1
 629 119 l 2
EndSplineSet
EndChar

StartChar: ydieresis
Encoding: 255 255 86
Width: 1024
VWidth: 0
Flags: HW
LayerCount: 2
Fore
SplineSet
629 119 m 2
 629 -49 492 -185 324 -185 c 0
 292 -185 265 -160 265 -128 c 0
 265 -96 292 -70 324 -70 c 0
 408 -70 478 -16 503 60 c 1
 453 23 391 2 324 2 c 0
 156 2 19 139 19 307 c 2
 19 554 l 2
 19 586 45 612 77 612 c 0
 109 612 135 586 135 554 c 2
 135 307 l 2
 135 203 220 119 324 119 c 0
 428 119 512 203 512 307 c 2
 512 554 l 2
 512 586 538 612 570 612 c 0
 602 612 629 586 629 554 c 2
 629 336 l 1
 629 119 l 2
EndSplineSet
EndChar

StartChar: egrave
Encoding: 232 232 87
Width: 1024
VWidth: 0
Flags: HW
LayerCount: 2
Fore
SplineSet
324 612 m 0
 492 612 629 475 629 307 c 0
 629 275 602 249 570 249 c 2
 144 249 l 1
 169 173 240 119 324 119 c 0
 356 119 382 92 382 60 c 0
 382 28 356 2 324 2 c 0
 156 2 19 139 19 307 c 0
 19 475 156 612 324 612 c 0
324 496 m 0
 240 496 169 442 144 366 c 1
 503 366 l 1
 478 442 408 496 324 496 c 0
EndSplineSet
EndChar

StartChar: eacute
Encoding: 233 233 88
Width: 1024
VWidth: 0
Flags: HW
LayerCount: 2
Fore
SplineSet
324 612 m 0
 492 612 629 475 629 307 c 0
 629 275 602 249 570 249 c 2
 144 249 l 1
 169 173 240 119 324 119 c 0
 356 119 382 92 382 60 c 0
 382 28 356 2 324 2 c 0
 156 2 19 139 19 307 c 0
 19 475 156 612 324 612 c 0
324 496 m 0
 240 496 169 442 144 366 c 1
 503 366 l 1
 478 442 408 496 324 496 c 0
EndSplineSet
EndChar

StartChar: ecircumflex
Encoding: 234 234 89
Width: 1024
VWidth: 0
Flags: HW
LayerCount: 2
Fore
SplineSet
324 612 m 0
 492 612 629 475 629 307 c 0
 629 275 602 249 570 249 c 2
 144 249 l 1
 169 173 240 119 324 119 c 0
 356 119 382 92 382 60 c 0
 382 28 356 2 324 2 c 0
 156 2 19 139 19 307 c 0
 19 475 156 612 324 612 c 0
324 496 m 0
 240 496 169 442 144 366 c 1
 503 366 l 1
 478 442 408 496 324 496 c 0
EndSplineSet
EndChar

StartChar: edieresis
Encoding: 235 235 90
Width: 1024
VWidth: 0
Flags: HW
LayerCount: 2
Fore
SplineSet
324 612 m 0
 492 612 629 475 629 307 c 0
 629 275 602 249 570 249 c 2
 144 249 l 1
 169 173 240 119 324 119 c 0
 356 119 382 92 382 60 c 0
 382 28 356 2 324 2 c 0
 156 2 19 139 19 307 c 0
 19 475 156 612 324 612 c 0
324 496 m 0
 240 496 169 442 144 366 c 1
 503 366 l 1
 478 442 408 496 324 496 c 0
EndSplineSet
EndChar

StartChar: Egrave
Encoding: 200 200 91
Width: 1024
VWidth: 0
Flags: HW
LayerCount: 2
Fore
SplineSet
324 612 m 0
 492 612 629 475 629 307 c 0
 629 275 602 249 570 249 c 2
 144 249 l 1
 169 173 240 119 324 119 c 0
 356 119 382 92 382 60 c 0
 382 28 356 2 324 2 c 0
 156 2 19 139 19 307 c 0
 19 475 156 612 324 612 c 0
324 496 m 0
 240 496 169 442 144 366 c 1
 503 366 l 1
 478 442 408 496 324 496 c 0
EndSplineSet
EndChar

StartChar: Eacute
Encoding: 201 201 92
Width: 1024
VWidth: 0
Flags: HW
LayerCount: 2
Fore
SplineSet
324 612 m 0
 492 612 629 475 629 307 c 0
 629 275 602 249 570 249 c 2
 144 249 l 1
 169 173 240 119 324 119 c 0
 356 119 382 92 382 60 c 0
 382 28 356 2 324 2 c 0
 156 2 19 139 19 307 c 0
 19 475 156 612 324 612 c 0
324 496 m 0
 240 496 169 442 144 366 c 1
 503 366 l 1
 478 442 408 496 324 496 c 0
EndSplineSet
EndChar

StartChar: Ecircumflex
Encoding: 202 202 93
Width: 1024
VWidth: 0
Flags: HW
LayerCount: 2
Fore
SplineSet
324 612 m 0
 492 612 629 475 629 307 c 0
 629 275 602 249 570 249 c 2
 144 249 l 1
 169 173 240 119 324 119 c 0
 356 119 382 92 382 60 c 0
 382 28 356 2 324 2 c 0
 156 2 19 139 19 307 c 0
 19 475 156 612 324 612 c 0
324 496 m 0
 240 496 169 442 144 366 c 1
 503 366 l 1
 478 442 408 496 324 496 c 0
EndSplineSet
EndChar

StartChar: Edieresis
Encoding: 203 203 94
Width: 1024
VWidth: 0
Flags: HW
LayerCount: 2
Fore
SplineSet
324 612 m 0
 492 612 629 475 629 307 c 0
 629 275 602 249 570 249 c 2
 144 249 l 1
 169 173 240 119 324 119 c 0
 356 119 382 92 382 60 c 0
 382 28 356 2 324 2 c 0
 156 2 19 139 19 307 c 0
 19 475 156 612 324 612 c 0
324 496 m 0
 240 496 169 442 144 366 c 1
 503 366 l 1
 478 442 408 496 324 496 c 0
EndSplineSet
EndChar

StartChar: Igrave
Encoding: 204 204 95
Width: 1024
VWidth: 0
Flags: HW
LayerCount: 2
Fore
SplineSet
629 742 m 0
 629 710 602 684 570 684 c 0
 538 684 512 710 512 742 c 0
 512 774 538 800 570 800 c 0
 602 800 629 774 629 742 c 0
629 60 m 2
 629 28 602 2 570 2 c 0
 538 2 512 28 512 60 c 2
 512 554 l 2
 512 586 538 612 570 612 c 0
 602 612 629 586 629 554 c 2
 629 60 l 2
EndSplineSet
EndChar

StartChar: Iacute
Encoding: 205 205 96
Width: 1024
VWidth: 0
Flags: HW
LayerCount: 2
Fore
SplineSet
629 742 m 0
 629 710 602 684 570 684 c 0
 538 684 512 710 512 742 c 0
 512 774 538 800 570 800 c 0
 602 800 629 774 629 742 c 0
629 60 m 2
 629 28 602 2 570 2 c 0
 538 2 512 28 512 60 c 2
 512 554 l 2
 512 586 538 612 570 612 c 0
 602 612 629 586 629 554 c 2
 629 60 l 2
EndSplineSet
EndChar

StartChar: Icircumflex
Encoding: 206 206 97
Width: 1024
VWidth: 0
Flags: HW
LayerCount: 2
Fore
SplineSet
629 742 m 0
 629 710 602 684 570 684 c 0
 538 684 512 710 512 742 c 0
 512 774 538 800 570 800 c 0
 602 800 629 774 629 742 c 0
629 60 m 2
 629 28 602 2 570 2 c 0
 538 2 512 28 512 60 c 2
 512 554 l 2
 512 586 538 612 570 612 c 0
 602 612 629 586 629 554 c 2
 629 60 l 2
EndSplineSet
EndChar

StartChar: Idieresis
Encoding: 207 207 98
Width: 1024
VWidth: 0
Flags: HW
LayerCount: 2
Fore
SplineSet
629 742 m 0
 629 710 602 684 570 684 c 0
 538 684 512 710 512 742 c 0
 512 774 538 800 570 800 c 0
 602 800 629 774 629 742 c 0
629 60 m 2
 629 28 602 2 570 2 c 0
 538 2 512 28 512 60 c 2
 512 554 l 2
 512 586 538 612 570 612 c 0
 602 612 629 586 629 554 c 2
 629 60 l 2
EndSplineSet
EndChar

StartChar: igrave
Encoding: 236 236 99
Width: 1024
VWidth: 0
Flags: HW
LayerCount: 2
Fore
SplineSet
629 742 m 0
 629 710 602 684 570 684 c 0
 538 684 512 710 512 742 c 0
 512 774 538 800 570 800 c 0
 602 800 629 774 629 742 c 0
629 60 m 2
 629 28 602 2 570 2 c 0
 538 2 512 28 512 60 c 2
 512 554 l 2
 512 586 538 612 570 612 c 0
 602 612 629 586 629 554 c 2
 629 60 l 2
EndSplineSet
EndChar

StartChar: iacute
Encoding: 237 237 100
Width: 1024
VWidth: 0
Flags: HW
LayerCount: 2
Fore
SplineSet
629 742 m 0
 629 710 602 684 570 684 c 0
 538 684 512 710 512 742 c 0
 512 774 538 800 570 800 c 0
 602 800 629 774 629 742 c 0
629 60 m 2
 629 28 602 2 570 2 c 0
 538 2 512 28 512 60 c 2
 512 554 l 2
 512 586 538 612 570 612 c 0
 602 612 629 586 629 554 c 2
 629 60 l 2
EndSplineSet
EndChar

StartChar: icircumflex
Encoding: 238 238 101
Width: 1024
VWidth: 0
Flags: HW
LayerCount: 2
Fore
SplineSet
629 742 m 0
 629 710 602 684 570 684 c 0
 538 684 512 710 512 742 c 0
 512 774 538 800 570 800 c 0
 602 800 629 774 629 742 c 0
629 60 m 2
 629 28 602 2 570 2 c 0
 538 2 512 28 512 60 c 2
 512 554 l 2
 512 586 538 612 570 612 c 0
 602 612 629 586 629 554 c 2
 629 60 l 2
EndSplineSet
EndChar

StartChar: idieresis
Encoding: 239 239 102
Width: 1024
VWidth: 0
Flags: HW
LayerCount: 2
Fore
SplineSet
629 742 m 0
 629 710 602 684 570 684 c 0
 538 684 512 710 512 742 c 0
 512 774 538 800 570 800 c 0
 602 800 629 774 629 742 c 0
629 60 m 2
 629 28 602 2 570 2 c 0
 538 2 512 28 512 60 c 2
 512 554 l 2
 512 586 538 612 570 612 c 0
 602 612 629 586 629 554 c 2
 629 60 l 2
EndSplineSet
EndChar

StartChar: eth
Encoding: 240 240 103
Width: 1024
VWidth: 0
Flags: HW
LayerCount: 2
Fore
SplineSet
324 625 m 4
 492 625 629 487 629 319 c 4
 629 151 492 14 324 14 c 4
 156 14 19 151 19 319 c 4
 19 487 156 625 324 625 c 4
324 508 m 4
 220 508 135 423 135 319 c 4
 135 215 220 131 324 131 c 4
 428 131 512 215 512 319 c 4
 512 423 428 508 324 508 c 4
EndSplineSet
EndChar

StartChar: ntilde
Encoding: 241 241 104
Width: 1024
VWidth: 0
Flags: HW
LayerCount: 2
Fore
SplineSet
19 554 m 2
 19 586 45 612 77 612 c 0
 109 612 135 586 135 554 c 2
 135 547 l 1
 187 588 253 612 324 612 c 0
 492 612 629 475 629 307 c 2
 629 60 l 2
 629 28 602 2 570 2 c 0
 538 2 512 28 512 60 c 2
 512 307 l 2
 512 411 428 496 324 496 c 0
 220 496 135 411 135 307 c 2
 135 60 l 2
 135 28 109 2 77 2 c 0
 45 2 19 28 19 60 c 2
 19 401 l 1
 19 554 l 2
EndSplineSet
EndChar

StartChar: multiply
Encoding: 215 215 105
Width: 1024
VWidth: 0
Flags: HW
LayerCount: 2
Fore
SplineSet
570 612 m 0
 571 612 571 612 572 612 c 0
 603 612 629 587 629 556 c 0
 629 540 622 524 611 513 c 0
 553 455 464 365 406 307 c 1
 462 251 555 157 611 101 c 0
 622 90 629 74 629 58 c 0
 629 27 603 2 572 2 c 0
 571 2 571 2 570 2 c 0
 555 2 539 9 529 19 c 0
 477 71 376 173 324 225 c 1
 265 166 178 78 119 19 c 0
 109 9 92 2 77 2 c 0
 76 2 76 2 75 2 c 0
 44 2 19 27 19 58 c 0
 19 75 24 91 36 101 c 2
 242 307 l 1
 36 513 l 2
 24 524 19 540 19 556 c 0
 19 587 44 612 75 612 c 0
 76 612 76 612 77 612 c 0
 92 612 109 606 119 595 c 2
 324 389 l 1
 383 448 470 536 529 595 c 0
 539 606 555 612 570 612 c 0
EndSplineSet
EndChar

StartChar: Ntilde
Encoding: 209 209 106
Width: 1024
VWidth: 0
Flags: HW
LayerCount: 2
Fore
SplineSet
19 554 m 2
 19 586 45 612 77 612 c 0
 109 612 135 586 135 554 c 2
 135 547 l 1
 187 588 253 612 324 612 c 0
 492 612 629 475 629 307 c 2
 629 60 l 2
 629 28 602 2 570 2 c 0
 538 2 512 28 512 60 c 2
 512 307 l 2
 512 411 428 496 324 496 c 0
 220 496 135 411 135 307 c 2
 135 60 l 2
 135 28 109 2 77 2 c 0
 45 2 19 28 19 60 c 2
 19 401 l 1
 19 554 l 2
EndSplineSet
EndChar

StartChar: ccedilla
Encoding: 231 231 107
Width: 1024
VWidth: 0
Flags: HW
LayerCount: 2
Fore
SplineSet
109 104 m 0
 50 163 19 241 19 319 c 0
 19 397 50 477 109 536 c 0
 168 595 246 625 324 625 c 0
 402 625 480 595 539 536 c 0
 550 525 555 509 555 495 c 0
 555 481 550 465 539 454 c 0
 528 443 512 436 498 436 c 0
 484 436 468 443 457 454 c 0
 420 491 372 509 324 509 c 0
 276 509 227 491 190 454 c 0
 153 417 135 367 135 319 c 0
 135 271 153 223 190 186 c 0
 227 149 276 131 324 131 c 0
 372 131 420 149 457 186 c 0
 468 197 484 203 498 203 c 0
 512 203 528 197 539 186 c 0
 550 175 555 159 555 145 c 0
 555 131 550 115 539 104 c 0
 480 45 402 15 324 15 c 0
 246 15 168 45 109 104 c 0
EndSplineSet
EndChar

StartChar: Ccedilla
Encoding: 199 199 108
Width: 1024
VWidth: 0
Flags: HW
LayerCount: 2
Fore
SplineSet
109 104 m 0
 50 163 19 241 19 319 c 0
 19 397 50 477 109 536 c 0
 168 595 246 625 324 625 c 0
 402 625 480 595 539 536 c 0
 550 525 555 509 555 495 c 0
 555 481 550 465 539 454 c 0
 528 443 512 436 498 436 c 0
 484 436 468 443 457 454 c 0
 420 491 372 509 324 509 c 0
 276 509 227 491 190 454 c 0
 153 417 135 367 135 319 c 0
 135 271 153 223 190 186 c 0
 227 149 276 131 324 131 c 0
 372 131 420 149 457 186 c 0
 468 197 484 203 498 203 c 0
 512 203 528 197 539 186 c 0
 550 175 555 159 555 145 c 0
 555 131 550 115 539 104 c 0
 480 45 402 15 324 15 c 0
 246 15 168 45 109 104 c 0
EndSplineSet
EndChar

StartChar: cent
Encoding: 162 162 109
Width: 1024
VWidth: 0
Flags: HW
LayerCount: 2
Fore
SplineSet
109 104 m 0
 50 163 19 241 19 319 c 0
 19 397 50 477 109 536 c 0
 168 595 246 625 324 625 c 0
 402 625 480 595 539 536 c 0
 550 525 555 509 555 495 c 0
 555 481 550 465 539 454 c 0
 528 443 512 436 498 436 c 0
 484 436 468 443 457 454 c 0
 420 491 372 509 324 509 c 0
 276 509 227 491 190 454 c 0
 153 417 135 367 135 319 c 0
 135 271 153 223 190 186 c 0
 227 149 276 131 324 131 c 0
 372 131 420 149 457 186 c 0
 468 197 484 203 498 203 c 0
 512 203 528 197 539 186 c 0
 550 175 555 159 555 145 c 0
 555 131 550 115 539 104 c 0
 480 45 402 15 324 15 c 0
 246 15 168 45 109 104 c 0
EndSplineSet
EndChar
